<svg xmlns="http://www.w3.org/2000/svg" width="16" height="16" viewBox="-0.5 -0.5 16 16" fill="none" stroke="#a5a7b8" stroke-linecap="round" stroke-linejoin="round" id="Barbell--Streamline-Tabler.svg">
  <path d="M1.25 7.5h0.625" stroke-width="1"></path>
  <path d="M3.75 5h-1.25a0.625 0.625 0 0 0 -0.625 0.625v3.75a0.625 0.625 0 0 0 0.625 0.625h1.25" stroke-width="1"></path>
  <path d="M3.75 4.375v6.25a0.625 0.625 0 0 0 0.625 0.625h0.625a0.625 0.625 0 0 0 0.625 -0.625v-6.25a0.625 0.625 0 0 0 -0.625 -0.625h-0.625a0.625 0.625 0 0 0 -0.625 0.625z" stroke-width="1"></path>
  <path d="M5.625 7.5h3.75" stroke-width="1"></path>
  <path d="M9.375 4.375v6.25a0.625 0.625 0 0 0 0.625 0.625h0.625a0.625 0.625 0 0 0 0.625 -0.625v-6.25a0.625 0.625 0 0 0 -0.625 -0.625h-0.625a0.625 0.625 0 0 0 -0.625 0.625z" stroke-width="1"></path>
  <path d="M11.25 5h1.25a0.625 0.625 0 0 1 0.625 0.625v3.75a0.625 0.625 0 0 1 -0.625 0.625h-1.25" stroke-width="1"></path>
  <path d="M13.75 7.5h-0.625" stroke-width="1"></path>
</svg>